<mxfile host="app.diagrams.net" modified="2023-06-01T08:49:01.828Z" agent="Mozilla/5.0 (X11; Linux x86_64; rv:109.0) Gecko/20100101 Firefox/113.0" etag="sJPlN1l3ccke7vzJ366s" version="21.2.7" type="device">
  <diagram name="Page-1" id="0847Tvbpn5OB5tF3t2vT">
    <mxGraphModel dx="2284" dy="744" grid="1" gridSize="10" guides="1" tooltips="1" connect="1" arrows="1" fold="1" page="1" pageScale="1" pageWidth="850" pageHeight="1100" math="0" shadow="0">
      <root>
        <mxCell id="0" />
        <mxCell id="1" parent="0" />
        <mxCell id="jNSmGpw4EnfPUCTIyarv-1" value="&lt;div&gt;Broswer&lt;/div&gt;" style="rounded=0;whiteSpace=wrap;html=1;" vertex="1" parent="1">
          <mxGeometry x="-90" y="410" width="160" height="100" as="geometry" />
        </mxCell>
        <mxCell id="jNSmGpw4EnfPUCTIyarv-2" value="Kubernetes&lt;br&gt;www.NN.de/" style="shape=hexagon;perimeter=hexagonPerimeter2;whiteSpace=wrap;html=1;fixedSize=1;rotation=0;" vertex="1" parent="1">
          <mxGeometry x="350" y="320" width="120" height="240" as="geometry" />
        </mxCell>
        <mxCell id="jNSmGpw4EnfPUCTIyarv-3" value="Frontend Container&lt;br&gt;Nginx" style="rounded=1;whiteSpace=wrap;html=1;" vertex="1" parent="1">
          <mxGeometry x="710" y="280" width="120" height="60" as="geometry" />
        </mxCell>
        <mxCell id="jNSmGpw4EnfPUCTIyarv-4" value="Get Index.html&lt;br&gt;und andere Dateien" style="curved=1;endArrow=classic;html=1;rounded=0;exitX=0.867;exitY=0.042;exitDx=0;exitDy=0;exitPerimeter=0;fillColor=#f8cecc;strokeColor=#b85450;strokeWidth=5;" edge="1" parent="1" source="jNSmGpw4EnfPUCTIyarv-2" target="jNSmGpw4EnfPUCTIyarv-3">
          <mxGeometry x="0.0391" y="38" width="50" height="50" relative="1" as="geometry">
            <mxPoint x="500" y="610" as="sourcePoint" />
            <mxPoint x="550" y="560" as="targetPoint" />
            <Array as="points">
              <mxPoint x="500" y="330" />
              <mxPoint x="550" y="300" />
            </Array>
            <mxPoint as="offset" />
          </mxGeometry>
        </mxCell>
        <mxCell id="jNSmGpw4EnfPUCTIyarv-5" value="1. Get www.NN.de/:80" style="curved=1;endArrow=classic;html=1;rounded=0;exitX=1;exitY=0;exitDx=0;exitDy=0;entryX=0.142;entryY=0.121;entryDx=0;entryDy=0;entryPerimeter=0;fillColor=#f8cecc;strokeColor=#b85450;strokeWidth=5;" edge="1" parent="1" source="jNSmGpw4EnfPUCTIyarv-1" target="jNSmGpw4EnfPUCTIyarv-2">
          <mxGeometry x="0.3838" y="20" width="50" height="50" relative="1" as="geometry">
            <mxPoint x="140" y="331" as="sourcePoint" />
            <mxPoint x="276" y="260" as="targetPoint" />
            <Array as="points">
              <mxPoint x="170" y="360" />
              <mxPoint x="260" y="350" />
            </Array>
            <mxPoint as="offset" />
          </mxGeometry>
        </mxCell>
        <mxCell id="jNSmGpw4EnfPUCTIyarv-6" value="2. Get www.NN.de/against_random:8080" style="curved=1;endArrow=classic;html=1;rounded=0;exitX=1;exitY=0.25;exitDx=0;exitDy=0;entryX=0.058;entryY=0.396;entryDx=0;entryDy=0;fillColor=#d5e8d4;strokeColor=#82b366;strokeWidth=5;entryPerimeter=0;" edge="1" parent="1" source="jNSmGpw4EnfPUCTIyarv-1" target="jNSmGpw4EnfPUCTIyarv-2">
          <mxGeometry x="0.2517" y="12" width="50" height="50" relative="1" as="geometry">
            <mxPoint x="250" y="410" as="sourcePoint" />
            <mxPoint x="377" y="359" as="targetPoint" />
            <Array as="points">
              <mxPoint x="220" y="410" />
            </Array>
            <mxPoint as="offset" />
          </mxGeometry>
        </mxCell>
        <mxCell id="jNSmGpw4EnfPUCTIyarv-7" value="Backend ContainerFastAPI" style="rounded=1;whiteSpace=wrap;html=1;" vertex="1" parent="1">
          <mxGeometry x="710" y="400" width="120" height="60" as="geometry" />
        </mxCell>
        <mxCell id="jNSmGpw4EnfPUCTIyarv-8" value="Get Websocket-Route for Random Game" style="curved=1;endArrow=classic;html=1;rounded=0;exitX=0.95;exitY=0.221;exitDx=0;exitDy=0;fillColor=#d5e8d4;strokeColor=#82b366;strokeWidth=5;entryX=0;entryY=0;entryDx=0;entryDy=0;exitPerimeter=0;" edge="1" parent="1" source="jNSmGpw4EnfPUCTIyarv-2" target="jNSmGpw4EnfPUCTIyarv-7">
          <mxGeometry x="-0.1982" y="13" width="50" height="50" relative="1" as="geometry">
            <mxPoint x="464" y="340" as="sourcePoint" />
            <mxPoint x="610" y="315" as="targetPoint" />
            <Array as="points">
              <mxPoint x="600" y="373" />
              <mxPoint x="690" y="380" />
            </Array>
            <mxPoint as="offset" />
          </mxGeometry>
        </mxCell>
        <mxCell id="jNSmGpw4EnfPUCTIyarv-9" value="3. Get www.NN.de/ws/{room_id}_{player_id}/:8080" style="curved=1;endArrow=classic;html=1;rounded=0;exitX=1;exitY=0.5;exitDx=0;exitDy=0;entryX=0.033;entryY=0.625;entryDx=0;entryDy=0;fillColor=#dae8fc;strokeColor=#6c8ebf;strokeWidth=5;entryPerimeter=0;" edge="1" parent="1" source="jNSmGpw4EnfPUCTIyarv-1" target="jNSmGpw4EnfPUCTIyarv-2">
          <mxGeometry x="0.1065" y="20" width="50" height="50" relative="1" as="geometry">
            <mxPoint x="80" y="472.5" as="sourcePoint" />
            <mxPoint x="367" y="452.5" as="targetPoint" />
            <Array as="points">
              <mxPoint x="100" y="490" />
            </Array>
            <mxPoint y="-1" as="offset" />
          </mxGeometry>
        </mxCell>
        <mxCell id="jNSmGpw4EnfPUCTIyarv-10" value="Websocket Connection for&lt;br&gt;Gameplay communication" style="curved=1;endArrow=classic;html=1;rounded=0;exitX=1;exitY=0.5;exitDx=0;exitDy=0;entryX=0;entryY=0.5;entryDx=0;entryDy=0;fillColor=#dae8fc;strokeColor=#6c8ebf;strokeWidth=5;" edge="1" parent="1" source="jNSmGpw4EnfPUCTIyarv-2" target="jNSmGpw4EnfPUCTIyarv-7">
          <mxGeometry x="-0.3203" y="20" width="50" height="50" relative="1" as="geometry">
            <mxPoint x="480" y="490" as="sourcePoint" />
            <mxPoint x="764" y="500" as="targetPoint" />
            <Array as="points">
              <mxPoint x="490" y="430" />
            </Array>
            <mxPoint as="offset" />
          </mxGeometry>
        </mxCell>
        <mxCell id="jNSmGpw4EnfPUCTIyarv-11" value="MongoDB&lt;br&gt;Database" style="shape=cylinder3;whiteSpace=wrap;html=1;boundedLbl=1;backgroundOutline=1;size=15;" vertex="1" parent="1">
          <mxGeometry x="750" y="690" width="60" height="80" as="geometry" />
        </mxCell>
        <mxCell id="jNSmGpw4EnfPUCTIyarv-12" value="&lt;div&gt;All Data gets synced&lt;/div&gt;&lt;div&gt;to allow stateless&lt;/div&gt;&lt;div&gt;Backend Containers&lt;/div&gt;" style="curved=1;endArrow=classic;html=1;rounded=0;exitX=0.5;exitY=1;exitDx=0;exitDy=0;entryX=0.5;entryY=0;entryDx=0;entryDy=0;strokeWidth=5;entryPerimeter=0;fillColor=#f5f5f5;strokeColor=#666666;startArrow=classic;startFill=1;" edge="1" parent="1" source="jNSmGpw4EnfPUCTIyarv-7" target="jNSmGpw4EnfPUCTIyarv-11">
          <mxGeometry x="-0.5242" y="-78" width="50" height="50" relative="1" as="geometry">
            <mxPoint x="590" y="570" as="sourcePoint" />
            <mxPoint x="830" y="560" as="targetPoint" />
            <Array as="points">
              <mxPoint x="850" y="560" />
            </Array>
            <mxPoint as="offset" />
          </mxGeometry>
        </mxCell>
        <mxCell id="jNSmGpw4EnfPUCTIyarv-13" value="&lt;div&gt;4. Get www.NN.de/mongo_entries/:8080&lt;/div&gt;" style="curved=1;endArrow=classic;html=1;rounded=0;exitX=1;exitY=0.5;exitDx=0;exitDy=0;entryX=0.117;entryY=0.796;entryDx=0;entryDy=0;fillColor=#ffe6cc;strokeColor=#d79b00;strokeWidth=5;entryPerimeter=0;" edge="1" parent="1" target="jNSmGpw4EnfPUCTIyarv-2">
          <mxGeometry x="0.1065" y="20" width="50" height="50" relative="1" as="geometry">
            <mxPoint x="70" y="500" as="sourcePoint" />
            <mxPoint x="354" y="510" as="targetPoint" />
            <Array as="points">
              <mxPoint x="100" y="530" />
            </Array>
            <mxPoint y="-1" as="offset" />
          </mxGeometry>
        </mxCell>
        <mxCell id="jNSmGpw4EnfPUCTIyarv-14" value="&lt;div&gt;Get Information about&lt;br&gt;Games history to show&lt;br&gt;them on Leaderboard&lt;br&gt;&lt;/div&gt;" style="curved=1;endArrow=classic;html=1;rounded=0;exitX=1;exitY=0.5;exitDx=0;exitDy=0;entryX=0;entryY=1;entryDx=0;entryDy=0;fillColor=#ffe6cc;strokeColor=#d79b00;strokeWidth=5;" edge="1" parent="1" target="jNSmGpw4EnfPUCTIyarv-7">
          <mxGeometry x="0.222" y="-23" width="50" height="50" relative="1" as="geometry">
            <mxPoint x="456" y="520" as="sourcePoint" />
            <mxPoint x="750" y="531" as="targetPoint" />
            <Array as="points">
              <mxPoint x="480" y="470" />
              <mxPoint x="660" y="480" />
            </Array>
            <mxPoint as="offset" />
          </mxGeometry>
        </mxCell>
      </root>
    </mxGraphModel>
  </diagram>
</mxfile>
